Coordinates
version=1
nRows=60
nColumns=12
inDegrees=yes

Units are S.I. units (second, meters, Newtons, ...)
Angles are in degrees

endheader
time	SC_y	SC_z	SC_x	AC_y	AC_z	AC_x	GH_y	GH_z	GH_yy	EL_x	PS_y
       0.0              -20.34          21.72          5.098          52.58         -13.92         -11.18          136.0          57.93          -11.4          11.45          123.6
    0.0164              -20.35          21.71          5.104          52.58         -13.92         -11.18          136.0          57.93         -11.42          11.47          123.6
    0.0328              -20.35          21.71           5.11          52.58         -13.92         -11.18          136.0          57.93         -11.44          11.49          123.6
   0.04921              -20.35          21.71          5.116          52.58         -13.92         -11.18          136.0          57.93         -11.46           11.5          123.6
   0.06561              -20.35          21.71          5.123          52.58         -13.92         -11.18          136.0          57.93         -11.49          11.52          123.5
   0.08201              -20.36          21.71          5.131          52.59         -13.92         -11.19          135.9          57.93         -11.51          11.54          123.5
   0.09841              -20.36          21.71          5.139          52.59         -13.92         -11.19          135.9          57.93         -11.54          11.56          123.5
    0.1148              -20.36          21.71          5.147          52.59         -13.92         -11.19          135.9          57.93         -11.57          11.59          123.5
    0.1312              -20.36           21.7          5.156          52.59         -13.92         -11.19          135.9          57.93          -11.6          11.61          123.4
    0.1476              -20.37           21.7          5.166          52.59         -13.92         -11.19          135.9          57.93         -11.64          11.64          123.4
     0.164              -20.37           21.7          5.176           52.6         -13.92          -11.2          135.9          57.93         -11.68          11.67          123.4
    0.1804              -20.37           21.7          5.187           52.6         -13.92          -11.2          135.9          57.93         -11.72           11.7          123.4
    0.1968              -20.38          21.69          5.199           52.6         -13.92          -11.2          135.9          57.93         -11.76          11.73          123.3
    0.2132              -20.38          21.69          5.212          52.61         -13.92          -11.2          135.9          57.93         -11.81          11.76          123.3
    0.2296              -20.39          21.69          5.227          52.61         -13.93         -11.21          135.8          57.93         -11.86           11.8          123.2
     0.246              -20.39          21.69          5.242          52.61         -13.93         -11.21          135.8          57.93         -11.91          11.84          123.2
    0.2624               -20.4          21.68          5.258          52.62         -13.93         -11.21          135.8          57.93         -11.97          11.89          123.2
    0.2788               -20.4          21.68          5.277          52.62         -13.93         -11.22          135.8          57.93         -12.04          11.94          123.1
    0.2952              -20.41          21.67          5.296          52.63         -13.93         -11.22          135.8          57.93         -12.11          11.99          123.0
    0.3116              -20.42          21.67          5.318          52.63         -13.93         -11.23          135.7          57.94         -12.18          12.05          123.0
     0.328              -20.42          21.66          5.342          52.64         -13.93         -11.23          135.7          57.94         -12.27          12.12          122.9
    0.3445              -20.43          21.66          5.368          52.65         -13.93         -11.24          135.7          57.94         -12.36          12.19          122.8
    0.3609              -20.44          21.65          5.397          52.66         -13.93         -11.24          135.6          57.94         -12.47          12.27          122.8
    0.3773              -20.45          21.65          5.429          52.66         -13.93         -11.25          135.6          57.94         -12.58          12.35          122.7
    0.3937              -20.46          21.64          5.464          52.67         -13.93         -11.26          135.6          57.94         -12.71          12.45          122.6
    0.4101              -20.48          21.63          5.504          52.68         -13.93         -11.27          135.5          57.94         -12.85          12.56          122.5
    0.4265              -20.49          21.62          5.549           52.7         -13.93         -11.28          135.5          57.95         -13.01          12.68          122.3
    0.4429              -20.51          21.61          5.599          52.71         -13.94         -11.29          135.4          57.95         -13.19          12.81          122.2
    0.4593              -20.53           21.6          5.655          52.72         -13.94          -11.3          135.3          57.95         -13.39          12.97          122.0
    0.4757              -20.55          21.58           5.72          52.74         -13.94         -11.31          135.2          57.95         -13.62          13.14          121.8
    0.4921              -20.57          21.57          5.793          52.76         -13.94         -11.33          135.2          57.95         -13.88          13.34          121.6
    0.5085               -20.6          21.55          5.877          52.78         -13.94         -11.35          135.1          57.96         -14.18          13.57          121.4
    0.5249              -20.63          21.53          5.974          52.81         -13.95         -11.37          134.9          57.96         -14.53          13.83          121.1
    0.5413              -20.67          21.51          6.087          52.84         -13.95         -11.39          134.8          57.97         -14.93          14.14          120.8
    0.5577              -20.71          21.48          6.219          52.87         -13.95         -11.42          134.7          57.97          -15.4           14.5          120.4
    0.5741              -20.76          21.44          6.375          52.91         -13.96         -11.45          134.5          57.98         -15.96          14.92          120.0
    0.5905              -20.82          21.41           6.56          52.96         -13.97         -11.49          134.2          57.99         -16.62          15.43          119.5
    0.6069              -20.89          21.36          6.781          53.02         -13.97         -11.54          134.0          57.99         -17.41          16.03          118.8
    0.6233              -20.98           21.3           7.05          53.09         -13.98          -11.6          133.7          58.01         -18.37          16.76          118.1
    0.6397              -21.08          21.23          7.377          53.17         -13.99         -11.67          133.3          58.02         -19.54          17.65          117.1
    0.6561              -21.22          21.15          7.782          53.28          -14.0         -11.76          132.8          58.04         -20.99          18.75          116.0
    0.6725              -21.38          21.04          8.286          53.41         -14.02         -11.87          132.2          58.06         -22.79          20.12          114.6
    0.6889              -21.59           20.9          8.921          53.58         -14.04         -12.01          131.4          58.08         -25.06          21.84          112.8
    0.7053              -21.85          20.73          9.729          53.79         -14.06         -12.18          130.5          58.11         -27.95          24.04          110.5
    0.7217              -22.18          20.51          10.76          54.06         -14.09          -12.4          129.2          58.16         -31.64          26.85          107.5
    0.7381              -22.61          20.23          12.09          54.41         -14.13         -12.69          127.6          58.21         -36.38          30.45          103.8
    0.7545              -23.16          19.87          13.78          54.85         -14.18         -13.06          125.6          58.28         -42.44          35.05          98.95
    0.7709              -23.85          19.42          15.91          55.41         -14.25         -13.52          123.1          58.36         -50.05          40.84          92.91
    0.7873               -24.7          18.87          18.51          56.09         -14.32         -14.08          120.0          58.47         -59.33           47.9          85.54
    0.8037              -25.67          18.23          21.52          56.88         -14.41         -14.73          116.4          58.59         -70.09          56.08          76.99
    0.8201              -26.73          17.53          24.78          57.74         -14.51         -15.43          112.5          58.72         -81.73          64.93          67.74
    0.8365              -27.79          16.84          28.04          58.59         -14.61         -16.14          108.6          58.85         -93.38          73.79          58.49
    0.8529              -28.77           16.2          31.05          59.38          -14.7         -16.79          105.0          58.98         -104.1          81.96          49.95
    0.8693              -29.61          15.65          33.64          60.06         -14.78         -17.35          101.9          59.08         -113.4          89.02          42.57
    0.8857               -30.3           15.2          35.77          60.62         -14.84         -17.81          99.39          59.17         -121.0          94.81          36.53
    0.9021              -30.85          14.84          37.47          61.07         -14.89         -18.18          97.37          59.24         -127.1          99.41          31.72
    0.9185              -31.28          14.55           38.8          61.41         -14.93         -18.47          95.78          59.29         -131.8          103.0          27.95
    0.9349              -31.61          14.33          39.83          61.68         -14.96         -18.69          94.55          59.33         -135.5          105.8          25.02
    0.9513              -31.88          14.16          40.64           61.9         -14.99         -18.86          93.59          59.36         -138.4          108.0          22.72
    0.9677              -32.08          14.03          41.27          62.06         -15.01          -19.0          92.83          59.39         -140.7          109.7          20.92
